<svg width="40" height="40" viewBox="0 0 40 40" fill="none" xmlns="http://www.w3.org/2000/svg">
<g id="Group 22">
<circle id="Ellipse 7" cx="20" cy="20" r="20" fill="#333333"/>
<path id="Vector" d="M24.7057 15.2167H22.0095C21.8552 15.2167 21.7063 15.3078 21.5629 15.4901C21.4196 15.6724 21.3479 15.8976 21.3479 16.1657V18.0476H24.7057L24.1929 20.7498H21.3479V28.8242H18.1721V20.7498H15.2939V18.0636H18.1721V16.4713C18.15 16.2139 18.1583 15.9566 18.1969 15.6992C18.2355 15.4419 18.2989 15.1899 18.3871 14.9432C18.4753 14.6966 18.5883 14.4634 18.7262 14.2436C18.864 14.0237 19.0212 13.8173 19.1976 13.6243C19.374 13.4313 19.5698 13.257 19.7848 13.1016C19.9998 12.9461 20.2286 12.8147 20.4712 12.7075C20.7138 12.6003 20.9647 12.5172 21.2239 12.4582C21.483 12.3992 21.7449 12.3644 22.0095 12.3536H24.7057V15.2167Z" fill="#F4F4F4"/>
</g>
</svg>
