<svg width="40" height="40" viewBox="0 0 40 40" fill="none" xmlns="http://www.w3.org/2000/svg">
<g id="Group 23">
<circle id="Ellipse 8" cx="20" cy="20" r="20" fill="#333333"/>
<path id="Vector" d="M23.6716 11.7657H16.3049C15.6722 11.7657 15.0824 11.8837 14.5356 12.1196C13.978 12.3555 13.4927 12.6799 13.0799 13.0927C12.6671 13.5056 12.3427 13.9908 12.1068 14.5484C11.8709 15.0952 11.7529 15.685 11.7529 16.3177V23.6844C11.7529 24.3171 11.8709 24.9068 12.1068 25.4537C12.3427 26.0113 12.6671 26.4965 13.0799 26.9094C13.4927 27.3222 13.978 27.6466 14.5356 27.8825C15.0824 28.1184 15.6722 28.2363 16.3049 28.2363H23.6716C24.3042 28.2363 24.894 28.1184 25.4409 27.8825C25.9985 27.6466 26.4837 27.3222 26.8965 26.9094C27.3094 26.4965 27.6338 26.0113 27.8697 25.4537C28.1056 24.9068 28.2235 24.3171 28.2235 23.6844V16.3177C28.2235 15.685 28.1056 15.0952 27.8697 14.5484C27.6338 13.9908 27.3094 13.5056 26.8965 13.0927C26.4837 12.6799 25.9985 12.3555 25.4409 12.1196C24.894 11.8837 24.3042 11.7657 23.6716 11.7657ZM26.7598 23.6844C26.7598 24.5422 26.4596 25.2714 25.8591 25.8719C25.2586 26.4724 24.5294 26.7726 23.6716 26.7726H16.3049C15.447 26.7726 14.7179 26.4724 14.1174 25.8719C13.5169 25.2714 13.2166 24.5422 13.2166 23.6844V16.3177C13.2166 15.4598 13.5169 14.7307 14.1174 14.1302C14.7179 13.5297 15.447 13.2294 16.3049 13.2294H23.6716C24.5294 13.2294 25.2586 13.5297 25.8591 14.1302C26.4596 14.7307 26.7598 15.4598 26.7598 16.3177V23.6844ZM19.9882 15.7547C19.3985 15.7547 18.8462 15.8673 18.3315 16.0925C17.8168 16.3177 17.3691 16.6206 16.9885 17.0013C16.6078 17.3819 16.3049 17.8296 16.0797 18.3443C15.8545 18.859 15.7419 19.4113 15.7419 20.001C15.7419 20.5908 15.8545 21.143 16.0797 21.6577C16.3049 22.1724 16.6078 22.6201 16.9885 23.0008C17.3691 23.3815 17.8168 23.6844 18.3315 23.9096C18.8462 24.1348 19.3985 24.2474 19.9882 24.2474C20.578 24.2474 21.1302 24.1348 21.6449 23.9096C22.1596 23.6844 22.6073 23.3815 22.988 23.0008C23.3687 22.6201 23.6716 22.1724 23.8968 21.6577C24.122 21.143 24.2345 20.5908 24.2345 20.001C24.2345 19.4113 24.122 18.859 23.8968 18.3443C23.6716 17.8296 23.3687 17.3819 22.988 17.0013C22.6073 16.6206 22.1596 16.3177 21.6449 16.0925C21.1302 15.8673 20.578 15.7547 19.9882 15.7547ZM19.9882 22.7837C19.2162 22.7837 18.5594 22.5129 18.0179 21.9714C17.4764 21.4299 17.2056 20.7731 17.2056 20.001C17.2056 19.229 17.4764 18.5722 18.0179 18.0307C18.5594 17.4892 19.2162 17.2184 19.9882 17.2184C20.7603 17.2184 21.4171 17.4892 21.9586 18.0307C22.5001 18.5722 22.7709 19.229 22.7709 20.001C22.7709 20.7731 22.5001 21.4299 21.9586 21.9714C21.4171 22.5129 20.7603 22.7837 19.9882 22.7837ZM24.4115 14.5162C24.2721 14.5162 24.1354 14.543 24.0013 14.5966C23.8673 14.6502 23.752 14.7307 23.6555 14.8379C23.559 14.9344 23.4813 15.0497 23.4223 15.1837C23.3633 15.3177 23.3338 15.4545 23.3338 15.5939C23.3338 15.7333 23.3633 15.87 23.4223 16.004C23.4813 16.1381 23.559 16.2533 23.6555 16.3498C23.752 16.4463 23.8673 16.5214 24.0013 16.575C24.1354 16.6286 24.2721 16.6554 24.4115 16.6554C24.5509 16.6554 24.6876 16.6286 24.8216 16.575C24.9557 16.5214 25.0709 16.4463 25.1675 16.3498C25.264 16.2533 25.3417 16.1381 25.4007 16.004C25.4597 15.87 25.4891 15.7333 25.4891 15.5939C25.4891 15.4545 25.4597 15.3177 25.4007 15.1837C25.3417 15.0497 25.264 14.9344 25.1675 14.8379C25.0709 14.7307 24.9557 14.6502 24.8216 14.5966C24.6876 14.543 24.5509 14.5162 24.4115 14.5162Z" fill="#F4F4F4"/>
</g>
</svg>
