<svg width="40" height="40" viewBox="0 0 40 40" fill="none" xmlns="http://www.w3.org/2000/svg">
<g id="Group 26">
<circle id="Ellipse 11" cx="20" cy="20" r="20" fill="#333333"/>
<path id="Vector" d="M15.4323 12.4238C15.4323 12.9285 15.2752 13.3603 14.9612 13.7192C14.6471 14.0781 14.1929 14.2576 13.5985 14.2576C13.0489 14.2576 12.6058 14.0809 12.2694 13.7276C11.9329 13.3743 11.7646 12.9677 11.7646 12.5079C11.7646 12.0032 11.9329 11.5573 12.2694 11.1704C12.6058 10.7834 13.0489 10.59 13.5985 10.59C14.148 10.59 14.5911 10.7694 14.9275 11.1283C15.264 11.4872 15.4323 11.919 15.4323 12.4238ZM11.7646 27.0605H15.4323V15.1661H11.7646V27.0605ZM24.2143 15.3511C23.2498 15.3511 22.4871 15.5642 21.9263 15.9904C21.3655 16.4166 20.9673 16.8148 20.7318 17.1849H20.6477L20.4626 15.6203H17.1651C17.1651 16.125 17.1791 16.6746 17.2072 17.269C17.2352 17.8635 17.2492 18.5028 17.2492 19.187V27.0605H20.9168V20.5665C20.9168 20.3871 20.9196 20.2244 20.9253 20.0786C20.9309 19.9328 20.9561 19.7926 21.001 19.658C21.1468 19.3328 21.3487 19.0075 21.6066 18.6822C21.8646 18.357 22.2459 18.1944 22.7506 18.1944C23.39 18.1944 23.8554 18.4383 24.147 18.9262C24.4386 19.4141 24.5845 20.0226 24.5845 20.7516V27.0605H28.2352V20.2973C28.2352 19.4449 28.1343 18.7103 27.9324 18.0934C27.7305 17.4653 27.4473 16.9494 27.0828 16.5456C26.7183 16.1418 26.2949 15.839 25.8126 15.6371C25.3191 15.4465 24.7863 15.3511 24.2143 15.3511Z" fill="#F4F4F4"/>
</g>
</svg>
