<svg width="30" height="30" viewBox="0 0 30 30" fill="none" xmlns="http://www.w3.org/2000/svg">
<g id="Group 29">
<path id="Vector" d="M30 15C30 17.08 29.6 19.03 28.8 20.85C28.02 22.67 26.95 24.255 25.59 25.605C24.23 26.955 22.64 28.03 20.82 28.83C19 29.61 17.06 30 15 30C12.92 30 10.97 29.61 9.15 28.83C7.33 28.03 5.745 26.955 4.395 25.605C3.045 24.255 1.97 22.67 1.17 20.85C0.39 19.01 0 17.06 0 15C0 12.92 0.39 10.97 1.17 9.15C1.97 7.33 3.045 5.745 4.395 4.395C5.745 3.045 7.33 1.97 9.15 1.17C10.97 0.390001 12.92 6.70552e-07 15 6.70552e-07C17.06 6.70552e-07 19 0.390001 20.82 1.17C22.64 1.97 24.23 3.045 25.59 4.395C26.95 5.745 28.02 7.33 28.8 9.15C29.6 10.97 30 12.92 30 15Z" fill="#A4A4A4"/>
<path id="Vector_2" d="M15 6.70552e-07C14.16 6.70552e-07 13.34 0.0700007 12.54 0.210001C11.74 0.350001 10.96 0.545001 10.2 0.795001C9.44 1.045 8.71 1.36 8.01 1.74C7.33 2.1 6.67 2.52 6.03 3H6.06C6.3 3.24 6.55 3.455 6.81 3.645C7.07 3.835 7.3 4.07 7.5 4.35L4.38 4.41C4.14 4.65 3.91 4.905 3.69 5.175C3.47 5.445 3.25 5.72 3.03 6H8.52C8.74 6.24 8.945 6.48 9.135 6.72C9.325 6.96 9.51 7.21 9.69 7.47H2.04C1.9 7.71 1.765 7.955 1.635 8.205C1.505 8.455 1.38 8.71 1.26 8.97H10.56C10.68 9.23 10.795 9.47 10.905 9.69C11.015 9.91 11.12 10.15 11.22 10.41H0.72C0.64 10.67 0.565 10.935 0.495 11.205C0.425 11.475 0.36 11.74 0.3 12H11.64C11.7 12.26 11.75 12.515 11.79 12.765C11.83 13.015 11.87 13.26 11.91 13.5H0.09C0.05 13.74 0.025 13.985 0.015 14.235C0.005 14.485 0 14.74 0 15H12C12 15.26 11.99 15.515 11.97 15.765C11.95 16.015 11.92 16.26 11.88 16.5H0.09C0.11 16.76 0.14 17.015 0.18 17.265C0.22 17.515 0.26 17.76 0.3 18H11.64C11.58 18.24 11.515 18.485 11.445 18.735C11.375 18.985 11.3 19.23 11.22 19.47H0.69C0.77 19.73 0.855 19.985 0.945 20.235C1.035 20.485 1.14 20.73 1.26 20.97H10.56C10.44 21.25 10.305 21.505 10.155 21.735C10.005 21.965 9.85 22.21 9.69 22.47H2.01C2.17 22.73 2.33 22.985 2.49 23.235C2.65 23.485 2.82 23.73 3 23.97L8.52 24.06C8.3 24.34 8.045 24.58 7.755 24.78C7.465 24.98 7.18 25.21 6.9 25.47C6.92 25.47 6.705 25.465 6.255 25.455C5.805 25.445 5.13 25.44 4.23 25.44C4.91 26.14 5.66 26.77 6.48 27.33C7.28 27.89 8.135 28.37 9.045 28.77C9.955 29.17 10.91 29.47 11.91 29.67C12.91 29.89 13.94 30 15 30C17.08 30 19.03 29.61 20.85 28.83C22.67 28.03 24.255 26.955 25.605 25.605C26.955 24.255 28.03 22.67 28.83 20.85C29.61 19.03 30 17.08 30 15C30 12.92 29.61 10.97 28.83 9.15C28.03 7.33 26.955 5.745 25.605 4.395C24.255 3.045 22.67 1.97 20.85 1.17C19.03 0.390001 17.08 6.70552e-07 15 6.70552e-07Z" fill="#F4F4F4"/>
</g>
</svg>
