<svg width="40" height="40" viewBox="0 0 40 40" fill="none" xmlns="http://www.w3.org/2000/svg">
<g id="Group 24">
<circle id="Ellipse 9" cx="20" cy="20" r="20" fill="#333333"/>
<path id="Vector" d="M25.3849 14.0423C24.8161 13.4955 24.1508 13.0773 23.389 12.7879C22.6271 12.4984 21.8169 12.3536 20.9585 12.3536C20.3039 12.3536 19.7137 12.4126 19.1879 12.5305C18.6514 12.6592 18.1739 12.8173 17.7554 13.005C17.3369 13.1926 16.9667 13.4044 16.6447 13.6402C16.3336 13.8761 16.0653 14.1066 15.8399 14.3318C15.2927 14.8893 14.8688 15.5192 14.5684 16.2215C14.2679 16.9238 14.1177 17.6394 14.1177 18.3685C14.1177 19.2906 14.2974 20.084 14.6569 20.7487C15.0164 21.4135 15.518 21.8745 16.1619 22.1318C16.2048 22.1533 16.2477 22.1694 16.2906 22.1801C16.3336 22.1908 16.3765 22.1962 16.4194 22.1962C16.5589 22.1962 16.6769 22.1533 16.7735 22.0675C16.8701 21.9817 16.9398 21.8692 16.9828 21.7298C17.0042 21.644 17.0364 21.5207 17.0793 21.3599C17.1223 21.1991 17.1545 21.0758 17.1759 20.99C17.2188 20.8184 17.2242 20.6791 17.192 20.5718C17.1598 20.4646 17.0901 20.352 16.9828 20.2341C16.8003 20.0197 16.6635 19.7784 16.5723 19.5104C16.4811 19.2423 16.4355 18.9368 16.4355 18.5937C16.4355 18.1005 16.5267 17.6073 16.7091 17.1141C16.9023 16.6102 17.1786 16.1625 17.5381 15.7712C17.8976 15.3798 18.3402 15.0662 18.866 14.8303C19.4025 14.5837 20.0195 14.4605 20.717 14.4605C21.2643 14.4605 21.7579 14.5355 22.1979 14.6856C22.6378 14.8357 23.0134 15.0528 23.3246 15.337C23.6358 15.6211 23.8718 15.9615 24.0328 16.3582C24.1938 16.7656 24.2742 17.2213 24.2742 17.7252C24.2742 18.3578 24.2099 18.9582 24.0811 19.5265C23.9523 20.0947 23.7592 20.5986 23.5016 21.0382C23.3299 21.3384 23.0912 21.6333 22.7854 21.9228C22.4795 22.2123 22.0906 22.357 21.6184 22.357C21.4145 22.357 21.2267 22.3168 21.055 22.2364C20.8834 22.156 20.7385 22.0407 20.6205 21.8906C20.5131 21.7619 20.4434 21.6118 20.4112 21.4403C20.379 21.2687 20.3844 21.0918 20.4273 20.9096C20.481 20.6951 20.5373 20.4807 20.5963 20.2663C20.6553 20.0518 20.717 19.8428 20.7814 19.639C20.8995 19.2531 21.0068 18.8832 21.1033 18.5293C21.1999 18.1755 21.2482 17.8592 21.2482 17.5805C21.2482 17.0873 21.1087 16.6879 20.8297 16.3823C20.5507 16.0768 20.1859 15.924 19.7352 15.924C19.1665 15.924 18.6836 16.1813 18.2865 16.6959C17.8895 17.2106 17.691 17.8378 17.691 18.5776C17.691 18.9421 17.7285 19.2531 17.8037 19.5104C17.8788 19.7677 17.9378 19.95 17.9807 20.0572C17.9378 20.2073 17.8627 20.5182 17.7554 20.99C17.6481 21.4617 17.53 21.9657 17.4013 22.5017C17.2725 23.0378 17.1545 23.5418 17.0471 24.0135C16.9291 24.496 16.8486 24.823 16.8057 24.9946C16.7842 25.091 16.7413 25.3323 16.6769 25.7183C16.6233 26.1042 16.5857 26.5144 16.5643 26.9486C16.5428 27.3828 16.5643 27.7876 16.6286 28.1628C16.7038 28.5274 16.8594 28.7418 17.0954 28.8061C17.353 28.8705 17.6051 28.7632 17.8519 28.4845C18.088 28.195 18.3026 27.8573 18.4958 27.4713C18.6889 27.0853 18.8445 26.71 18.9626 26.3455C19.0806 25.9809 19.1557 25.7504 19.1879 25.6539C19.2201 25.5146 19.2925 25.2277 19.4052 24.7935C19.5179 24.3593 19.6171 23.976 19.703 23.6436C19.9498 23.8902 20.2663 24.0912 20.6526 24.2467C21.039 24.4022 21.4306 24.4799 21.8277 24.4799C22.5788 24.4799 23.2817 24.3137 23.9362 23.9813C24.5908 23.649 25.1542 23.1772 25.6263 22.5661C26.0877 21.9764 26.4418 21.2795 26.6886 20.4753C26.9354 19.6712 27.0589 18.8135 27.0589 17.9021C27.0589 17.1838 26.914 16.4895 26.6243 15.8194C26.3345 15.1493 25.9214 14.5569 25.3849 14.0423Z" fill="#F4F4F4"/>
</g>
</svg>
