<svg width="52" height="22" viewBox="0 0 52 22" fill="none" xmlns="http://www.w3.org/2000/svg">
<path id="Vector" d="M4.31299 8.72363C4.31299 8.4502 4.41895 8.25537 4.63086 8.13916C4.84277 8.02295 5.1333 7.96484 5.50244 7.96484C6.03564 7.96484 6.6167 8.04346 7.24561 8.20068C7.87451 8.35791 8.45557 8.58008 8.98877 8.86719V5.56543C8.40088 5.34668 7.81982 5.18604 7.24561 5.0835C6.67139 4.98096 6.09033 4.92969 5.50244 4.92969C4.7915 4.92969 4.14209 5.01855 3.5542 5.19629C2.97998 5.37402 2.48438 5.63379 2.06738 5.97559C1.65039 6.31738 1.33252 6.73438 1.11377 7.22656C0.881348 7.71875 0.765137 8.27246 0.765137 8.8877C0.765137 9.8584 1.04541 10.583 1.60596 11.0615C2.15283 11.54 2.76123 11.9126 3.43115 12.1792C4.10107 12.4458 4.70947 12.6816 5.25635 12.8867C5.81689 13.0918 6.09717 13.3994 6.09717 13.8096C6.09717 14.1377 5.9707 14.3633 5.71777 14.4863C5.46484 14.6094 5.14014 14.6709 4.74365 14.6709C4.16943 14.6709 3.53711 14.5649 2.84668 14.353C2.15625 14.1411 1.51709 13.8711 0.929199 13.543V16.8857C1.57178 17.1729 2.21777 17.3779 2.86719 17.501C3.5166 17.624 4.14209 17.6855 4.74365 17.6855C5.46826 17.6855 6.13818 17.5967 6.75342 17.4189C7.35498 17.2412 7.87109 16.9849 8.30176 16.6499C8.73242 16.3149 9.0708 15.9014 9.31689 15.4092C9.54932 14.917 9.66553 14.3564 9.66553 13.7275C9.66553 12.6885 9.38525 11.916 8.82471 11.4102C8.26416 10.9043 7.64893 10.5181 6.979 10.2515C6.30908 9.98486 5.70068 9.7627 5.15381 9.58496C4.59326 9.40723 4.31299 9.12012 4.31299 8.72363ZM13.7876 2.12012L10.3628 2.8584V14.0762C10.3628 15.1152 10.708 15.9766 11.3984 16.6602C12.0889 17.3437 12.9536 17.6855 13.9927 17.6855C14.5669 17.6855 15.0591 17.6411 15.4692 17.5522C15.8794 17.4634 16.2007 17.3574 16.4331 17.2344V14.3838C16.2144 14.4658 15.7153 14.5376 14.936 14.5991C14.1567 14.6606 13.7671 14.1719 13.7671 13.1328V8.14941H16.4331V5.17578H13.7671L13.7876 2.12012ZM20.8013 6.20117L20.5757 5.17578H17.5405V17.4395H21.0474V9.11328C21.4575 8.58008 21.9497 8.30664 22.5239 8.29297C23.0981 8.2793 23.4946 8.31348 23.7134 8.39551V5.17578C23.4946 5.08008 23.0571 5.03906 22.4009 5.05273C21.7446 5.06641 21.2114 5.44922 20.8013 6.20117ZM24.5747 5.17578H28.0815V17.4395H24.5747V5.17578ZM24.5747 4.10938L28.0815 3.35059V0.5L24.5747 1.23828V4.10938ZM35.4028 4.92969C34.7192 4.92969 34.1519 5.05615 33.7007 5.30908C33.2495 5.56201 32.9009 5.79785 32.6548 6.0166L32.4702 5.15527H29.394V21.5L32.9009 20.7617V16.7832C33.1606 16.9746 33.4854 17.1694 33.875 17.3677C34.2646 17.5659 34.7671 17.665 35.3823 17.665C36.0112 17.665 36.6196 17.542 37.2075 17.2959C37.7817 17.0361 38.291 16.6396 38.7354 16.1064C39.1797 15.5732 39.5317 14.9033 39.7915 14.0967C40.0513 13.29 40.1812 12.3262 40.1812 11.2051C40.1812 10.1934 40.0444 9.29785 39.771 8.51855C39.5112 7.73926 39.1592 7.08301 38.7148 6.5498C38.2705 6.0166 37.7612 5.61328 37.187 5.33984C36.6128 5.06641 36.0181 4.92969 35.4028 4.92969ZM34.562 14.5889C34.1519 14.5889 33.8169 14.5239 33.5571 14.394C33.2974 14.2642 33.0786 14.1104 32.9009 13.9326V8.72363C33.0786 8.51855 33.3008 8.35449 33.5674 8.23145C33.834 8.1084 34.1655 8.04688 34.562 8.04688C35.2046 8.04688 35.7241 8.36133 36.1206 8.99023C36.5171 9.61914 36.7153 10.3916 36.7153 11.3076C36.7153 12.251 36.5171 13.0337 36.1206 13.6558C35.7241 14.2778 35.2046 14.5889 34.562 14.5889ZM51.2349 11.3486C51.2349 10.4463 51.1255 9.60547 50.9067 8.82617C50.688 8.04688 50.3667 7.37012 49.9429 6.7959C49.519 6.22168 48.9927 5.76367 48.3638 5.42188C47.7349 5.09375 47.0034 4.92969 46.1694 4.92969C45.3354 4.92969 44.5903 5.09375 43.9341 5.42188C43.2642 5.76367 42.7002 6.22168 42.2422 6.7959C41.7842 7.37012 41.4321 8.04688 41.186 8.82617C40.9399 9.60547 40.8169 10.4395 40.8169 11.3281C40.8169 12.3809 40.9604 13.3037 41.2476 14.0967C41.5347 14.8896 41.9312 15.5493 42.437 16.0757C42.9429 16.6021 43.5513 17.002 44.2622 17.2754C44.9731 17.5352 45.7593 17.665 46.6206 17.665C47.4546 17.665 48.1895 17.5796 48.8252 17.4087C49.4609 17.2378 50.0181 17.0225 50.4966 16.7627V13.9531C50.0181 14.1992 49.502 14.3906 48.9482 14.5273C48.3945 14.6641 47.769 14.7324 47.0718 14.7324C46.3882 14.7324 45.7832 14.582 45.2568 14.2812C44.7305 13.9805 44.4263 13.4199 44.3442 12.5996H51.2144C51.2144 12.5039 51.2178 12.3125 51.2246 12.0254C51.2314 11.7383 51.2349 11.5127 51.2349 11.3486ZM44.3032 10.0156C44.3032 9.22266 44.5015 8.65186 44.8979 8.30322C45.2944 7.95459 45.7114 7.78027 46.1489 7.78027C46.5864 7.78027 46.9932 7.95459 47.3691 8.30322C47.7451 8.65186 47.9331 9.22266 47.9331 10.0156H44.3032Z" fill="#F4F4F4"/>
</svg>
