<svg width="40" height="40" viewBox="0 0 40 40" fill="none" xmlns="http://www.w3.org/2000/svg">
<g id="Group 25">
<circle id="Ellipse 10" cx="20" cy="20" r="20" fill="#333333"/>
<path id="Vector" d="M10.928 20.2579L15.2644 21.881L16.9309 27.2968C16.9876 27.4791 17.1038 27.5958 17.2795 27.6471C17.4552 27.6983 17.6111 27.667 17.7472 27.5531L20.1619 25.5713C20.2866 25.4688 20.4312 25.4147 20.5956 25.409C20.76 25.4033 20.9102 25.446 21.0462 25.5371L25.3996 28.732C25.5583 28.8345 25.7227 28.8516 25.8928 28.7832C26.0628 28.7149 26.1648 28.5896 26.1989 28.4073L29.3959 12.9798C29.4412 12.7747 29.3874 12.6067 29.2343 12.4758C29.0813 12.3448 28.9084 12.3192 28.7157 12.3989L10.911 19.2841C10.6956 19.3752 10.5879 19.5375 10.5879 19.771C10.5879 20.0045 10.7013 20.1668 10.928 20.2579ZM16.6588 21.0096L25.1445 15.7646C25.2239 15.719 25.2891 15.7333 25.3401 15.8073C25.3911 15.8813 25.3826 15.9468 25.3146 16.0038L18.3254 22.5302C18.2006 22.6441 18.1014 22.7779 18.0278 22.9317C17.9541 23.0854 17.9059 23.242 17.8832 23.4015L17.6451 25.1783C17.6225 25.3036 17.5516 25.3691 17.4326 25.3748C17.3135 25.3805 17.237 25.3264 17.203 25.2125L16.2847 21.9835C16.2394 21.7898 16.2507 21.6047 16.3187 21.4282C16.3867 21.2517 16.5001 21.1121 16.6588 21.0096Z" fill="#F4F4F4"/>
</g>
</svg>
