<svg width="44" height="16" viewBox="0 0 44 16" fill="none" xmlns="http://www.w3.org/2000/svg">
<g id="Group 28">
<path id="Vector" d="M15.5327 0.667969L13.1743 15.3018H16.939L19.2974 0.667969C19.2974 0.667969 19.1021 0.667969 18.7114 0.667969C18.311 0.667969 17.8765 0.667969 17.4077 0.667969C16.939 0.667969 16.5093 0.667969 16.1187 0.667969C15.728 0.667969 15.5327 0.667969 15.5327 0.667969ZM26.8706 6.62988C26.2163 6.30762 25.7012 6.01953 25.3252 5.76562C24.9492 5.51172 24.7612 5.21875 24.7612 4.88672C24.7612 4.58398 24.9346 4.30322 25.2812 4.04443C25.6279 3.78564 26.1772 3.65625 26.9292 3.65625C27.5347 3.64648 28.0669 3.7002 28.5259 3.81738C28.9849 3.93457 29.3853 4.06152 29.7271 4.19824L30.064 4.35938L30.5767 1.2832C30.2056 1.14648 29.7319 1.01221 29.1558 0.880371C28.5796 0.748535 27.9302 0.682617 27.2075 0.682617C26.27 0.682617 25.4155 0.799805 24.644 1.03418C23.8726 1.25879 23.2061 1.57861 22.6445 1.99365C22.083 2.40869 21.646 2.9043 21.3335 3.48047C21.021 4.05664 20.8599 4.69141 20.8501 5.38477C20.8501 5.89258 20.9526 6.34668 21.1577 6.74707C21.3628 7.14746 21.6289 7.50391 21.9561 7.81641C22.2832 8.12891 22.6421 8.39746 23.0327 8.62207C23.4233 8.85645 23.7944 9.05664 24.146 9.22266C24.8784 9.57422 25.3887 9.87939 25.6768 10.1382C25.9648 10.397 26.1089 10.6826 26.1089 10.9951C26.0991 11.4639 25.855 11.8105 25.3765 12.0352C24.8979 12.2598 24.3853 12.3721 23.8384 12.3721C23.0962 12.3721 22.4761 12.3135 21.978 12.1963C21.48 12.0791 20.9233 11.8887 20.3081 11.625L19.8247 11.4053L19.2974 14.584C19.7368 14.7793 20.335 14.9526 21.0918 15.104C21.8486 15.2554 22.647 15.3311 23.4868 15.3311C24.4731 15.3311 25.3667 15.2187 26.1675 14.9941C26.9683 14.7695 27.6543 14.4448 28.2256 14.02C28.7969 13.5952 29.2388 13.085 29.5513 12.4893C29.8638 11.8936 30.0249 11.2295 30.0347 10.4971C30.0347 10.0869 29.9712 9.70605 29.8442 9.35449C29.7271 8.99316 29.5366 8.65381 29.2729 8.33643C29.0093 8.01904 28.6821 7.71875 28.2915 7.43555C27.8911 7.15234 27.4175 6.88379 26.8706 6.62988ZM40.2153 0.711914H37.3003C36.8511 0.711914 36.4604 0.79248 36.1284 0.953613C35.7964 1.11475 35.5327 1.4248 35.3374 1.88379L29.7563 15.3018H33.6968L34.7808 12.4014H39.2046L39.7612 15.3164H43.2476L40.2153 0.711914ZM35.8794 9.47168C35.8989 9.47168 35.9917 9.22754 36.1577 8.73926C36.314 8.24121 36.4849 7.69678 36.6704 7.10596C36.856 6.51514 37.022 5.9707 37.1685 5.47266C37.3247 4.97461 37.4028 4.72559 37.4028 4.72559L38.5454 9.47168C38.5454 9.47168 38.1938 9.47168 37.4907 9.47168C36.7876 9.47168 36.2505 9.47168 35.8794 9.47168ZM10.0396 0.667969L6.34814 10.6143L5.95264 8.65137C5.78662 8.08496 5.53271 7.51367 5.19092 6.9375C4.84912 6.36133 4.44873 5.81201 3.98975 5.28955C3.53076 4.76709 3.02783 4.28125 2.48096 3.83203C1.92432 3.39258 1.34814 3.0166 0.752441 2.7041L4.12158 15.2871H8.10596L14.0239 0.667969H10.0396Z" fill="#F4F4F4"/>
<path id="Vector_2" d="M9.0874 2.55762C8.95068 2.00098 8.66504 1.54932 8.23047 1.20264C7.7959 0.855957 7.26611 0.677734 6.64111 0.667969H0.811035L0.752441 0.946289C1.89502 1.21973 2.979 1.62988 4.00439 2.17676C5.02979 2.72363 5.9624 3.34863 6.80225 4.05176C7.64209 4.75488 8.36963 5.51172 8.98486 6.32227C9.59033 7.14258 10.0493 7.95801 10.3618 8.76855L9.0874 2.55762Z" fill="#6A6A6A"/>
</g>
</svg>
