<svg width="40" height="40" viewBox="0 0 40 40" fill="none" xmlns="http://www.w3.org/2000/svg">
<g id="Group 27">
<circle id="Ellipse 12" cx="20" cy="20" r="20" fill="#333333"/>
<path id="Vector" d="M27.5919 15.1331C27.2916 14.7737 26.8466 14.5149 26.2568 14.357C25.6671 14.199 24.8521 14.1201 23.812 14.1201H16.1879C15.1156 14.1201 14.2819 14.2018 13.6868 14.3652C13.0916 14.5286 12.6439 14.8063 12.3437 15.1985C12.0542 15.5689 11.8853 16.0318 11.837 16.5874C11.7888 17.1429 11.7646 17.7965 11.7646 18.5482V21.4567C11.7646 22.1865 11.8183 22.8292 11.9255 23.3848C12.0434 23.9403 12.2606 24.4033 12.5769 24.7737C12.8932 25.144 13.3409 25.4218 13.92 25.607C14.499 25.7922 15.255 25.8848 16.1879 25.8848H23.812C24.7127 25.8848 25.4338 25.8167 25.9754 25.6805C26.5169 25.5444 26.9538 25.3183 27.2862 25.0024C27.6187 24.6756 27.8599 24.2317 28.0101 23.6707C28.1602 23.1097 28.2352 22.3717 28.2352 21.4567V18.5482C28.2352 17.753 28.2031 17.0749 28.1387 16.5138C28.0744 15.9528 27.8921 15.4926 27.5919 15.1331ZM22.3322 20.3946L18.8901 22.241C18.8472 22.2628 18.8043 22.2791 18.7614 22.29C18.7185 22.3009 18.6756 22.3063 18.6328 22.3063C18.5899 22.3063 18.5443 22.2982 18.496 22.2818C18.4478 22.2655 18.4022 22.2464 18.3593 22.2246C18.2843 22.1702 18.2226 22.1021 18.1743 22.0204C18.1261 21.9387 18.102 21.8488 18.102 21.7508V18.107C18.102 18.0089 18.1261 17.9191 18.1743 17.8374C18.2226 17.7557 18.2843 17.6876 18.3593 17.6331C18.4451 17.5896 18.5336 17.565 18.6247 17.5596C18.7159 17.5542 18.8043 17.5732 18.8901 17.6168L22.3322 19.4469C22.4287 19.4904 22.5011 19.5558 22.5493 19.6429C22.5976 19.7301 22.6217 19.8227 22.6217 19.9207C22.6217 20.0188 22.5976 20.1113 22.5493 20.1985C22.5011 20.2856 22.4287 20.351 22.3322 20.3946Z" fill="#F4F4F4"/>
</g>
</svg>
