<svg width="40" height="40" viewBox="0 0 40 40" fill="none" xmlns="http://www.w3.org/2000/svg">
<g id="Firefly / stroke / square-arrow-up">
<path id="Union" fill-rule="evenodd" clip-rule="evenodd" d="M21.0474 12.2597L20.0002 11.2124L18.9625 12.2501C18.9469 12.265 18.9316 12.2803 18.9167 12.2959L12.2728 18.9397C11.687 19.5255 11.687 20.4753 12.2728 21.061C12.8586 21.6468 13.8084 21.6468 14.3942 21.061L18.5 16.9552L18.5 26.6667C18.5 27.4952 19.1716 28.1667 20 28.1667C20.8284 28.1667 21.5 27.4952 21.5 26.6667L21.5 16.9549L25.6062 21.061C26.192 21.6468 27.1417 21.6468 27.7275 21.061C28.3133 20.4753 28.3133 19.5255 27.7275 18.9397L21.0737 12.286C21.0651 12.2771 21.0563 12.2683 21.0474 12.2597Z" fill="#F4F4F4"/>
<rect id="Rec" x="3.3335" y="3.3335" width="33.3333" height="33.3333" rx="6.57943" stroke="#A4A4A4" stroke-width="3" stroke-linecap="round" stroke-linejoin="round"/>
</g>
</svg>
