<svg width="40" height="40" viewBox="0 0 40 40" fill="none" xmlns="http://www.w3.org/2000/svg">
<g id="Firefly / fill / cast">
<path id="Vector 129" d="M12.5001 6.66667H11.6667V6.66667C7.98481 6.66673 5.00006 9.65152 5.00007 13.3334L5.00008 23C5.00009 27.2004 5.0001 29.3006 5.81755 30.9049C6.53661 32.3161 7.68396 33.4635 9.09518 34.1825C10.6995 35 12.7997 35 17.0001 35L26.6669 34.9999C30.3487 34.9999 33.3334 32.0152 33.3333 28.3333V28.3333V27.5" stroke="#F4F4F4" stroke-width="3" stroke-linecap="square" stroke-linejoin="round"/>
<path id="Vector" d="M20 20H20.0174" stroke="#F4F4F4" stroke-width="3" stroke-linecap="round" stroke-linejoin="round"/>
<path id="Ellipse 43" d="M28.3333 19.9998C28.3333 15.3975 24.6024 11.6665 20 11.6665" stroke="#F4F4F4" stroke-width="3" stroke-linecap="round"/>
<path id="Ellipse 44" d="M36.6667 20.0002C36.6667 10.7954 29.2047 3.3335 20 3.3335" stroke="#F4F4F4" stroke-width="3" stroke-linecap="round"/>
</g>
</svg>
