<svg width="40" height="40" viewBox="0 0 40 40" fill="none" xmlns="http://www.w3.org/2000/svg">
<g id="Firefly / stroke / download">
<path id="Union" fill-rule="evenodd" clip-rule="evenodd" d="M21.4997 1.6665C21.4997 0.838077 20.8281 0.166504 19.9997 0.166504C19.1712 0.166504 18.4997 0.838077 18.4997 1.6665L18.4997 24.7119L14.3937 20.6058C13.8079 20.0201 12.8581 20.0201 12.2723 20.6058C11.6866 21.1916 11.6866 22.1414 12.2723 22.7272L18.939 29.3938L19.9997 30.4545L21.0603 29.3938L27.727 22.7272C28.3128 22.1414 28.3128 21.1916 27.727 20.6058C27.1412 20.0201 26.1915 20.0201 25.6057 20.6058L21.4997 24.7119L21.4997 1.6665Z" fill="#A4A4A4"/>
<path id="Vector 161" d="M26.6667 8.3335V8.3335C28.2155 8.3335 28.9899 8.3335 29.6339 8.46159C32.2785 8.98764 34.3459 11.055 34.8719 13.6996C35 14.3436 35 15.118 35 16.6668V26.0002C35 29.7338 35 31.6007 34.2734 33.0268C33.6342 34.2812 32.6143 35.3011 31.3599 35.9402C29.9339 36.6668 28.067 36.6668 24.3333 36.6668H15.6667C11.933 36.6668 10.0661 36.6668 8.64006 35.9402C7.38565 35.3011 6.36578 34.2812 5.72662 33.0268C5 31.6007 5 29.7338 5 26.0002V16.6668C5 15.118 5 14.3436 5.1281 13.6996C5.65414 11.055 7.72146 8.98764 10.3661 8.46159C11.0101 8.3335 11.7845 8.3335 13.3333 8.3335V8.3335" stroke="#F4F4F4" stroke-width="3"/>
</g>
</svg>
