<svg width="40" height="40" viewBox="0 0 40 40" fill="none" xmlns="http://www.w3.org/2000/svg">
<g id="Firefly / stroke / random-3">
<path id="Union" fill-rule="evenodd" clip-rule="evenodd" d="M36.894 11.894L37.9547 10.8333L36.894 9.77267L30.2273 3.10601C29.6415 2.52022 28.6918 2.52022 28.106 3.10601C27.5202 3.69179 27.5202 4.64154 28.106 5.22733L32.212 9.33333H27.095L26.873 9.33325C25.4145 9.33248 24.3512 9.33192 23.3715 9.64877C22.5086 9.92789 21.7136 10.3845 21.0377 10.9893C20.2703 11.6758 19.735 12.5946 19.0008 13.8548L18.8891 14.0466L11.8529 26.1085C10.9585 27.6417 10.6648 28.1111 10.2953 28.4417C9.93132 28.7673 9.50324 29.0132 9.03857 29.1635C8.56683 29.3161 8.0134 29.3333 6.23837 29.3333H4.16667C3.33824 29.3333 2.66667 30.0049 2.66667 30.8333C2.66667 31.6618 3.33824 32.3333 4.16667 32.3333H6.23837L6.46037 32.3334C7.91879 32.3342 8.98213 32.3347 9.96179 32.0179C10.8248 31.7388 11.6198 31.2822 12.2957 30.6774C13.063 29.9908 13.5983 29.072 14.3325 27.8119L14.4443 27.6201L21.4804 15.5582C22.3748 14.0249 22.6686 13.5556 23.0381 13.225C23.402 12.8994 23.8301 12.6535 24.2948 12.5032C24.7665 12.3506 25.3199 12.3333 27.095 12.3333H32.212L28.106 16.4393C27.5202 17.0251 27.5202 17.9749 28.106 18.5607C28.6918 19.1464 29.6415 19.1464 30.2273 18.5607L36.894 11.894Z" fill="#A4A4A4"/>
<path id="Union_2" fill-rule="evenodd" clip-rule="evenodd" d="M12.481 16.6348L11.7252 15.3391L10.9961 14.0891L10.9776 14.0575C10.3511 12.9936 9.21044 12.3384 7.97578 12.3334L7.93914 12.3333H4.16673C3.3383 12.3333 2.66673 11.6618 2.66673 10.8333C2.66673 10.0049 3.3383 9.33333 4.16673 9.33333H7.93914L7.98798 9.33339C10.2809 9.34271 12.3993 10.5595 13.5627 12.5354L13.5874 12.5775L14.3166 13.8275L15.0724 15.1232L12.481 16.6348Z" fill="#F4F4F4"/>
<path id="Union_3" fill-rule="evenodd" clip-rule="evenodd" d="M36.8942 29.7727L37.9549 30.8333L36.9102 31.878C36.8996 31.8889 36.8889 31.8996 36.878 31.9102L30.2276 38.5607C29.6418 39.1464 28.692 39.1464 28.1062 38.5607C27.5205 37.9749 27.5205 37.0251 28.1062 36.4393L32.212 32.3336H25.3945L25.3457 32.3335C23.0527 32.3242 20.9343 31.1074 19.7709 29.1315L19.7462 29.0894L19.0171 27.8394L18.2613 26.5437L20.8526 25.0321L21.6084 26.3278L22.3376 27.5778L22.3561 27.6094C22.9825 28.6734 24.1232 29.3285 25.3579 29.3335L25.3945 29.3336H32.2125L28.1062 25.2273C27.5205 24.6415 27.5205 23.6918 28.1062 23.106C28.692 22.5202 29.6418 22.5202 30.2276 23.106L36.8942 29.7727Z" fill="#F4F4F4"/>
</g>
</svg>
