<svg width="40" height="40" viewBox="0 0 40 40" fill="none" xmlns="http://www.w3.org/2000/svg">
<path d="M13.9285 6.66658C12.9677 6.66658 12.1057 6.66657 11.3317 6.68107C10.6507 6.69383 10.0377 6.71783 9.48547 6.76295C8.27072 6.8622 7.20374 7.07189 6.21658 7.57486C4.64857 8.37381 3.37373 9.64865 2.57478 11.2167C2.0718 12.2038 1.86212 13.2708 1.76287 14.4855C1.66647 15.6653 1.66649 17.1223 1.6665 18.9286V24.4046C1.66649 26.2109 1.66647 27.6678 1.76287 28.8476C1.86212 30.0624 2.0718 31.1294 2.57478 32.1165C3.37373 33.6845 4.64857 34.9594 6.21658 35.7583C7.20374 36.2613 8.27072 36.471 9.48547 36.5702C10.6652 36.6666 12.1221 36.6666 13.9283 36.6666H22.7379C24.5441 36.6666 26.0011 36.6666 27.1809 36.5702C28.3956 36.471 29.4626 36.2613 30.4498 35.7583C32.0178 34.9594 33.2926 33.6845 34.0916 32.1165C34.5945 31.1294 34.8042 30.0624 34.9035 28.8476C34.9999 27.6679 34.9999 26.211 34.9998 24.4048V18.9285C34.9999 17.1223 34.9999 15.6653 34.9035 14.4855C34.8042 13.2708 34.5945 12.2038 34.0916 11.2167C33.2926 9.64865 32.0178 8.37381 30.4498 7.57487C29.5518 7.11732 28.5877 6.90247 27.5065 6.79268C27.3991 6.78178 27.2906 6.77191 27.1809 6.76295C26.0011 6.66656 24.5442 6.66657 22.7379 6.66658H13.9285Z" fill="white" fill-opacity="0.4"/>
<path d="M15.6189 2.02053L11.9056 5.73377C11.6194 6.01998 11.4314 6.34472 11.3317 6.68107C12.1057 6.66657 12.9677 6.66658 13.9285 6.66658H22.7379C24.5442 6.66657 26.0011 6.66656 27.1809 6.76295C27.2906 6.77191 27.3991 6.78178 27.5065 6.79268C27.5397 6.62116 27.557 6.44332 27.5557 6.26022C27.5507 5.55743 27.2708 4.89749 26.7722 4.34627C26.7015 4.26809 26.6286 4.19134 26.5533 4.11612L24.4577 2.02052C22.017 -0.420255 18.0597 -0.420251 15.6189 2.02053Z" fill="#F4F4F4"/>
<path d="M34.9998 24.9999H29.9998C28.1589 24.9999 26.6665 23.5075 26.6665 21.6666C26.6665 19.8256 28.1589 18.3333 29.9998 18.3333H34.9998C36.8408 18.3333 38.3332 19.8256 38.3332 21.6666C38.3332 23.5075 36.8408 24.9999 34.9998 24.9999Z" fill="#F4F4F4"/>
<g filter="url(#filter0_b_216_275)">
<circle cx="8.33333" cy="31.6666" r="8.33333" fill="white" fill-opacity="0.4"/>
</g>
<path d="M8.33333 28.3333L8.33333 31.6666M8.33333 31.6666L8.33333 34.9999M8.33333 31.6666H11.6667M8.33333 31.6666H5" stroke="#F4F4F4" strokeWidth="2.5" stroke-linecap="round"/>
<defs>
<filter id="filter0_b_216_275" x="-2" y="21.3333" width="20.6665" height="20.6667" filterUnits="userSpaceOnUse" color-interpolation-filters="sRGB">
<feFlood flood-opacity="0" result="BackgroundImageFix"/>
<feGaussianBlur in="BackgroundImageFix" stdDeviation="1"/>
<feComposite in2="SourceAlpha" operator="in" result="effect1_backgroundBlur_216_275"/>
<feBlend mode="normal" in="SourceGraphic" in2="effect1_backgroundBlur_216_275" result="shape"/>
</filter>
</defs>
</svg>
