<svg width="60" height="60" viewBox="0 0 60 60" fill="none" xmlns="http://www.w3.org/2000/svg">
<path d="M29.9995 60C46.5684 60 60.0001 46.5689 60.0001 30C60.0001 13.4311 46.5684 0 29.9995 0C13.4306 0 -0.000488281 13.4311 -0.000488281 30C-0.000488281 46.5689 13.4306 60 29.9995 60Z" fill="#F62B1E"/>
<path d="M29.9996 11.7806C19.9382 11.7806 11.7802 19.9386 11.7802 30C11.7802 40.0614 19.9382 48.2194 29.9996 48.2194C40.061 48.2194 48.219 40.0614 48.219 30C48.219 19.9386 40.061 11.7806 29.9996 11.7806ZM29.9996 14.2018C38.7111 14.2018 45.7978 21.2884 45.7978 30C45.7978 38.7116 38.7111 45.7982 29.9996 45.7982C21.288 45.7982 14.2013 38.7116 14.2013 30C14.2013 21.2884 21.288 14.2018 29.9996 14.2018Z" fill="white"/>
<path d="M24.2036 38.864L39.5443 30.0001L24.2036 21.1362V38.864Z" fill="white"/>
</svg>
