<svg width="60" height="60" viewBox="0 0 60 60" fill="none" xmlns="http://www.w3.org/2000/svg">
<path fill-rule="evenodd" clip-rule="evenodd" d="M29.9997 0C13.4317 0 0 13.4314 0 29.9996C0 46.5693 13.4317 60 29.9997 60C46.5688 60 59.9997 46.5693 59.9997 29.9996C59.9997 13.4314 46.5688 0 29.9997 0ZM47.7456 26.5957C38.0754 20.8527 22.1246 20.3247 12.8932 23.1268C11.4105 23.5764 9.84287 22.7396 9.394 21.2572C8.94442 19.7737 9.78054 18.2071 11.264 17.7565C21.8613 14.5398 39.4772 15.1614 50.6097 21.7698C51.9434 22.5612 52.3808 24.2832 51.5902 25.6144C50.7992 26.9478 49.0757 27.3874 47.7456 26.5957ZM47.4289 35.1017C46.7508 36.2025 45.3114 36.5475 44.2119 35.8719C36.1499 30.9164 23.856 29.4805 14.3179 32.3758C13.0813 32.7498 11.7748 32.0523 11.399 30.8179C11.0265 29.5809 11.724 28.2769 12.9588 27.9007C23.8545 24.5942 37.3997 26.1955 46.6594 31.8861C47.7588 32.5632 48.1049 34.0033 47.4289 35.1017ZM43.7581 43.2706C43.2193 44.1544 42.0679 44.4316 41.1874 43.8929C34.1423 39.5872 25.2753 38.6146 14.8327 41.0001C13.8264 41.2308 12.8234 40.5999 12.5941 39.594C12.3634 38.5877 12.9918 37.585 14.0002 37.3554C25.4279 34.7431 35.2306 35.8672 43.138 40.6992C44.0196 41.2376 44.2972 42.3893 43.7581 43.2706Z" fill="#1ED760"/>
</svg>
