<svg width="60" height="60" viewBox="0 0 60 60" fill="none" xmlns="http://www.w3.org/2000/svg">
<path fill-rule="evenodd" clip-rule="evenodd" d="M60.0002 18.7679C60.0002 18.0525 60.0002 17.337 60.0002 16.6216C60.0002 16.0254 60.0002 15.4054 59.9763 14.8092C59.9525 13.4976 59.8571 12.1622 59.6186 10.8744C59.3802 9.5628 58.9986 8.32273 58.3786 7.13037C57.7824 5.96184 56.9954 4.86486 56.0654 3.93482C55.1353 3.00477 54.0622 2.21781 52.8699 1.62162C51.6775 1.00159 50.4374 0.620032 49.1258 0.381558C47.8142 0.143084 46.5026 0.0715421 45.191 0.0238474C44.5949 0.0238474 43.9987 0 43.3787 0C42.6632 0 41.9478 0 41.2324 0H18.7683C18.0529 0 17.3374 0 16.622 0C16.0258 0 15.4058 0 14.8096 0.0238474C13.498 0.0715421 12.1626 0.143084 10.8748 0.381558C9.53939 0.620032 8.32318 1.00159 7.13082 1.62162C5.93846 2.21781 4.86533 3.00477 3.93529 3.93482C3.00524 4.86486 2.21828 5.938 1.6221 7.13037C1.00207 8.32273 0.620517 9.53895 0.382044 10.8744C0.143572 12.186 0.0720301 13.4976 0.0243355 14.8092C0.0243355 15.4054 0.000488281 16.0254 0.000488281 16.6216C0.000488281 17.337 0.000488281 18.0525 0.000488281 18.7679V41.2321C0.000488281 41.9475 0.000488281 42.663 0.000488281 43.3784C0.000488281 43.9746 0.000488281 44.5946 0.0243355 45.1908C0.0481828 46.5024 0.143572 47.8378 0.382044 49.1256C0.620517 50.4372 1.00207 51.6773 1.6221 52.8696C2.21828 54.0382 3.00524 55.1351 3.93529 56.0652C4.86533 56.9952 5.93846 57.7822 7.13082 58.3784C8.32318 58.9984 9.53939 59.4038 10.8748 59.6184C12.1864 59.8569 13.498 59.9285 14.8096 59.9762C15.4058 60 16.0258 60 16.622 60C17.3374 60 18.0529 60 18.7683 60H41.2324C41.9478 60 42.6632 60 43.3787 60C43.9748 60 44.5949 60 45.191 59.9762C46.5026 59.9523 47.8381 59.8569 49.1258 59.6184C50.4374 59.38 51.6775 58.9984 52.8699 58.3784C54.0384 57.7822 55.1353 56.9952 56.0654 56.0652C56.9954 55.1351 57.7824 54.062 58.3786 52.8696C58.9986 51.6773 59.3802 50.4372 59.6186 49.1256C59.8571 47.814 59.9286 46.5024 59.9763 45.1908C60.0002 44.5946 60.0002 43.9746 60.0002 43.3784C60.0002 42.663 60.0002 41.9475 60.0002 41.2321V18.7679Z" fill="url(#paint0_linear_215_955)"/>
<path fill-rule="evenodd" clip-rule="evenodd" d="M42.421 9.15897C42.2779 9.18282 40.9902 9.39744 40.8232 9.42129L22.9855 13.0461C22.5085 13.1415 22.1508 13.3084 21.8647 13.5469C21.5308 13.8331 21.34 14.2385 21.2685 14.6916C21.2685 14.8108 21.2446 15.0016 21.2446 15.3116C21.2446 15.3116 21.2446 33.531 21.2446 37.6327C21.2446 38.1574 21.1969 38.6582 20.8392 39.0874C20.4815 39.5167 20.0523 39.6598 19.5276 39.7551C19.1461 39.8267 18.7407 39.9221 18.3591 39.9936C16.8806 40.2798 15.9267 40.4944 15.0682 40.8283C14.2335 41.1621 13.6135 41.5675 13.1127 42.0683C12.135 43.0938 11.7296 44.5008 11.8727 45.7885C11.9919 46.9094 12.4927 47.9586 13.3512 48.7695C13.9235 49.2941 14.6628 49.6995 15.5213 49.8903C16.4036 50.0572 17.3575 50.0095 18.7407 49.7234C19.4799 49.5803 20.1715 49.3418 20.8154 48.9602C21.4593 48.5787 22.0316 48.054 22.4609 47.434C22.8901 46.814 23.1763 46.1224 23.3432 45.3831C23.5101 44.62 23.534 43.9284 23.534 43.1653V23.8013C23.534 22.752 23.8201 22.4897 24.6548 22.2989C24.6548 22.2989 39.4878 19.318 40.1794 19.1749C41.1571 18.9841 41.6102 19.2703 41.6102 20.2718V33.4833C41.6102 34.0079 41.6102 34.5326 41.2525 34.9618C40.8948 35.3911 40.4655 35.5342 39.9409 35.6296C39.5593 35.7011 39.1539 35.7965 38.7724 35.868C37.2938 36.1542 36.34 36.3688 35.4815 36.7027C34.6468 37.0366 34.0268 37.442 33.526 37.9427C32.5482 38.9682 32.119 40.3752 32.2382 41.6629C32.3575 42.7838 32.8821 43.833 33.7645 44.6439C34.3368 45.1685 35.0761 45.5739 35.9346 45.7408C36.8169 45.9078 37.7708 45.8601 39.1539 45.5739C39.8932 45.4308 40.5848 45.2162 41.2286 44.8108C41.8725 44.4292 42.4449 43.9046 42.8741 43.2846C43.3034 42.6645 43.5895 41.973 43.7565 41.2337C43.9234 40.4706 43.9234 39.779 43.9234 39.0159V10.7567C43.9234 9.70746 43.3749 9.08743 42.421 9.15897Z" fill="white"/>
<defs>
<linearGradient id="paint0_linear_215_955" x1="30.0003" y1="59.7746" x2="30.0003" y2="1.29277" gradientUnits="userSpaceOnUse">
<stop stop-color="#FA233B"/>
<stop offset="1" stop-color="#FB5C74"/>
</linearGradient>
</defs>
</svg>
