<svg width="766" height="1037" viewBox="0 0 766 1037" fill="none" xmlns="http://www.w3.org/2000/svg">
<g opacity="0.3">
<path d="M170.881 555.445C163.12 545.882 161.044 532.868 165.436 521.307L216.4 387.158C220.792 375.597 230.985 367.244 243.138 365.246L384.162 342.067C396.316 340.069 408.585 344.73 416.346 354.293L506.407 465.262C514.169 474.826 516.244 487.84 511.852 499.401L460.889 633.55C456.497 645.111 446.304 653.464 434.15 655.462L293.126 678.641C280.972 680.639 268.704 675.978 260.942 666.414L170.881 555.445Z" fill="url(#paint0_linear_197_28)" fill-opacity="0.2"/>
<path d="M171.658 554.815C164.122 545.53 162.105 532.892 166.371 521.662L217.334 387.513C221.601 376.283 231.5 368.172 243.301 366.233L384.325 343.053C396.124 341.114 408.035 345.639 415.57 354.923L505.631 465.893C513.167 475.178 515.184 487.816 510.918 499.046L459.954 633.195C455.688 644.424 445.788 652.535 433.988 654.475L292.964 677.654C281.164 679.594 269.254 675.069 261.719 665.784L171.658 554.815Z" stroke="url(#paint1_linear_197_28)" stroke-opacity="0.5" stroke-width="2"/>
<path d="M719.945 420.109C715.588 431.629 705.387 439.973 693.187 441.997L551.617 465.478C539.417 467.502 527.069 462.899 519.225 453.402L428.216 343.209C420.373 333.713 418.225 320.766 422.583 309.245L473.142 175.571C477.5 164.05 487.7 155.707 499.901 153.683L641.47 130.202C653.671 128.178 666.019 132.781 673.862 142.278L764.871 252.471C772.715 261.967 774.862 274.914 770.505 286.435L719.945 420.109Z" fill="url(#paint2_linear_197_28)" fill-opacity="0.2"/>
<path d="M719.01 419.755C714.779 430.941 704.874 439.044 693.023 441.01L551.454 464.492C539.603 466.458 527.612 461.986 519.996 452.765L428.987 342.573C421.372 333.353 419.288 320.784 423.518 309.599L474.078 175.925C478.308 164.739 488.213 156.635 500.064 154.67L641.634 131.188C653.485 129.222 665.476 133.694 673.091 142.915L764.1 253.107C771.715 262.327 773.8 274.896 769.569 286.081L719.01 419.755Z" stroke="url(#paint3_linear_197_28)" stroke-opacity="0.5" stroke-width="2"/>
<path d="M527.839 507.01C531.954 495.401 541.977 486.845 554.132 484.566L695.178 458.12C707.333 455.841 719.775 460.184 727.816 469.515L821.116 577.774C829.157 587.104 831.576 600.003 827.461 611.612L779.716 746.318C775.602 757.927 765.579 766.483 753.423 768.762L612.378 795.208C600.222 797.487 587.78 793.144 579.739 783.813L486.439 675.554C478.398 666.224 475.979 653.325 480.094 641.716L527.839 507.01Z" fill="url(#paint4_linear_197_28)" fill-opacity="0.2"/>
<path d="M528.781 507.344C532.776 496.073 542.509 487.763 554.317 485.549L695.362 459.103C707.169 456.889 719.251 461.109 727.058 470.167L820.359 578.427C828.165 587.485 830.513 600.007 826.519 611.278L778.774 745.984C774.779 757.255 765.046 765.565 753.239 767.779L612.193 794.225C600.386 796.439 588.304 792.219 580.497 783.161L487.196 674.901C479.39 665.843 477.042 653.321 481.037 642.05L528.781 507.344Z" stroke="url(#paint5_linear_197_28)" stroke-opacity="0.5" stroke-width="2"/>
</g>
<defs>
<linearGradient id="paint0_linear_197_28" x1="190.918" y1="454.232" x2="486.371" y2="566.475" gradientUnits="userSpaceOnUse">
<stop stop-color="white"/>
<stop offset="1" stop-color="white" stop-opacity="0"/>
</linearGradient>
<linearGradient id="paint1_linear_197_28" x1="224.972" y1="366.203" x2="402.425" y2="646.903" gradientUnits="userSpaceOnUse">
<stop stop-color="white"/>
<stop offset="1" stop-color="white" stop-opacity="0"/>
</linearGradient>
<linearGradient id="paint2_linear_197_28" x1="622.402" y1="453.738" x2="570.685" y2="141.942" gradientUnits="userSpaceOnUse">
<stop stop-color="white"/>
<stop offset="1" stop-color="white" stop-opacity="0"/>
</linearGradient>
<linearGradient id="paint3_linear_197_28" x1="529.195" y1="468.618" x2="682.434" y2="173.999" gradientUnits="userSpaceOnUse">
<stop stop-color="white"/>
<stop offset="1" stop-color="white" stop-opacity="0"/>
</linearGradient>
<linearGradient id="paint4_linear_197_28" x1="624.655" y1="471.343" x2="682.9" y2="781.985" gradientUnits="userSpaceOnUse">
<stop stop-color="white"/>
<stop offset="1" stop-color="white" stop-opacity="0"/>
</linearGradient>
<linearGradient id="paint5_linear_197_28" x1="717.529" y1="454.511" x2="570.504" y2="752.279" gradientUnits="userSpaceOnUse">
<stop stop-color="white"/>
<stop offset="1" stop-color="white" stop-opacity="0"/>
</linearGradient>
</defs>
</svg>
