<svg width="100" height="46" viewBox="0 0 100 46" fill="none" xmlns="http://www.w3.org/2000/svg">
<path d="M95.5626 41.7016C98.2042 39.2223 99.7918 35.8111 99.9935 32.1811C100.048 30.337 99.7342 28.5009 99.0678 26.7823C98.4013 25.0637 97.3977 23.498 96.1168 22.1785C94.8359 20.8591 93.304 19.813 91.6125 19.1028C89.9211 18.3926 88.1048 18.0328 86.2721 18.0448C85.0504 18.0404 83.8341 18.2072 82.6581 18.5406C81.9989 15.4537 80.7105 12.5382 78.8744 9.97833C77.0383 7.41849 74.6944 5.27007 71.9911 3.66894C68.5266 1.5905 64.5676 0.495425 60.5346 0.500014C53.9333 0.500014 50.7995 2.68774 50.7995 2.68774C50.2213 2.93959 49.7321 3.36149 49.3962 3.89812C49.0603 4.43474 48.8934 5.06103 48.9173 5.69484V42.626C48.9215 43.381 49.2205 44.104 49.7497 44.6391C50.2789 45.1741 50.9958 45.4781 51.7458 45.4857H85.8183C89.4297 45.5368 92.921 44.181 95.5626 41.7016Z" fill="#FF5500"/>
<path d="M44.6643 44.4655C46.4387 31.9803 45.6919 20.5562 44.6643 8.03006C44.7131 7.60603 44.5117 7.1902 44.1535 6.96487C43.9776 6.85179 43.7734 6.79128 43.5647 6.79038C43.356 6.78947 43.1513 6.84821 42.9744 6.95977C42.7975 7.07132 42.6557 7.23111 42.5655 7.42057C42.4752 7.61002 42.4402 7.82137 42.4646 8.03006C41.5285 20.4477 40.8102 32.0869 42.4646 44.4655C42.4953 44.7375 42.6245 44.9885 42.8273 45.1707C43.0302 45.353 43.2925 45.4537 43.5644 45.4537C43.8363 45.4537 44.0987 45.353 44.3015 45.1707C44.5044 44.9885 44.6335 44.7375 44.6643 44.4655Z" fill="#FF5500"/>
<path d="M37.3811 45.1956C37.5919 45.0112 37.7292 44.7562 37.768 44.4778C39.1456 33.8055 39.1517 23 37.7822 12.3277C37.7528 12.0402 37.6186 11.774 37.4054 11.5804C37.1923 11.3868 36.9155 11.2797 36.6284 11.2797C36.3414 11.2797 36.0645 11.3868 35.8514 11.5804C35.6383 11.774 35.504 12.0402 35.4746 12.3277C34.2415 23.0084 34.2415 33.7971 35.4746 44.4778C35.5134 44.7562 35.6507 45.0112 35.8615 45.1956C36.0722 45.3801 36.342 45.4817 36.6213 45.4817C36.9006 45.4817 37.1704 45.3801 37.3811 45.1956Z" fill="#FF5500"/>
<path d="M30.8493 44.4512C32.4894 33.0005 31.9807 22.7173 30.8615 11.24C30.8004 10.6664 30.3182 10.2362 29.7484 10.2362C29.1766 10.2362 28.6963 10.6664 28.6353 11.24C27.5812 22.5698 27.0481 33.1479 28.6353 44.4512C28.6524 44.7351 28.7765 45.0017 28.9822 45.1966C29.1879 45.3915 29.4598 45.5 29.7423 45.5C30.0248 45.5 30.2967 45.3915 30.5024 45.1966C30.7081 45.0017 30.8322 44.7351 30.8493 44.4512Z" fill="#FF5500"/>
<path d="M23.5642 45.2014C23.7715 45.0189 23.906 44.7669 23.9428 44.4922C25.3227 34.5354 25.3344 24.4349 23.9815 14.4744C23.9815 14.1683 23.8606 13.8747 23.6456 13.6582C23.4306 13.4417 23.1389 13.3201 22.8348 13.3201C22.5307 13.3201 22.239 13.4417 22.024 13.6582C21.8089 13.8747 21.6881 14.1683 21.6881 14.4744C20.4142 24.4393 20.4142 34.5273 21.6881 44.4922C21.7249 44.7669 21.8594 45.0189 22.0667 45.2014C22.274 45.3839 22.5401 45.4844 22.8155 45.4844C23.0908 45.4844 23.3569 45.3839 23.5642 45.2014Z" fill="#FF5500"/>
<path d="M16.9671 44.5721C17.9927 36.6385 18.7802 29.7639 17.0322 21.9799C17.0152 21.6891 16.8885 21.4158 16.678 21.2159C16.4675 21.016 16.1891 20.9045 15.8997 20.9042C15.6104 20.904 15.3318 21.0149 15.121 21.2145C14.9101 21.414 14.7829 21.6871 14.7653 21.9778C13.1252 29.7107 13.8985 36.747 14.8305 44.5721C14.872 44.8271 15.0022 45.0591 15.1979 45.2264C15.3936 45.3937 15.642 45.4856 15.8988 45.4856C16.1556 45.4856 16.404 45.3937 16.5997 45.2264C16.7954 45.0591 16.9256 44.8271 16.9671 44.5721Z" fill="#FF5500"/>
<path d="M10.0973 43.5253C11.2165 35.5241 11.7394 28.7725 10.138 20.7979C10.1023 20.5117 9.96399 20.2484 9.7491 20.0576C9.53422 19.8667 9.2575 19.7614 8.97093 19.7614C8.68436 19.7614 8.40764 19.8667 8.19276 20.0576C7.97787 20.2484 7.8396 20.5117 7.80391 20.7979C6.35098 28.6906 6.83122 35.645 7.84461 43.5253C7.95246 44.7195 9.96498 44.7073 10.0973 43.5253Z" fill="#FF5500"/>
<path d="M3.1114 39.6722C4.28351 34.25 4.85736 29.9524 3.17856 24.6633C3.1541 24.369 3.01863 24.0946 2.80266 23.8946C2.58669 23.6946 2.30396 23.5836 2.01052 23.5836C1.71707 23.5836 1.43434 23.6946 1.21837 23.8946C1.0024 24.0946 0.868966 24.369 0.844513 24.6633C-0.490389 29.9667 -0.077302 34.3565 0.934049 39.6722C0.957632 39.9465 1.08254 40.2019 1.2841 40.388C1.48566 40.5741 1.74922 40.6774 2.02273 40.6774C2.29623 40.6774 2.55979 40.5741 2.76135 40.388C2.96291 40.2019 3.08782 39.9465 3.1114 39.6722Z" fill="#FF5500"/>
</svg>
