<svg width="156" height="100" viewBox="0 0 156 100" fill="none" xmlns="http://www.w3.org/2000/svg">
<path d="M89.1326 69.5971C94.5741 65.9633 98.1805 59.7506 98.1805 52.7066C98.1805 41.528 89.1326 32.4381 78.0057 32.4381C66.8787 32.4381 57.8308 41.528 57.8308 52.7066C57.8308 59.7506 61.4373 65.9633 66.8787 69.5971C54.5532 74.1687 45.728 86.0506 45.728 99.9999H51.1059C51.1059 85.1022 63.1768 72.9752 78.0057 72.9752C92.8345 72.9752 104.905 85.1022 104.905 99.9999H110.283C110.283 86.0506 101.458 74.1687 89.1326 69.5971ZM78.0057 67.5724C69.8487 67.5724 63.2087 60.9014 63.2087 52.7066C63.2087 44.5119 69.8487 37.8409 78.0057 37.8409C86.1626 37.8409 92.8027 44.5119 92.8027 52.7066C92.8027 60.9014 86.1626 67.5724 78.0057 67.5724Z" fill="#F4F4F4"/>
<path d="M116.032 56.0848C121.474 52.4509 125.08 46.2382 125.08 39.1943C125.08 28.0157 116.032 18.9258 104.905 18.9258C99.5167 18.9258 94.6267 21.0677 90.9991 24.5417C89.6626 25.8312 88.4958 27.2911 87.5518 28.9109C89.2277 29.5929 90.8294 30.4347 92.3038 31.4471C93.2584 29.8913 94.4782 28.5272 95.9102 27.419C98.4029 25.4901 101.511 24.3392 104.894 24.3392C113.051 24.3392 119.691 31.0102 119.691 39.205C119.691 46.0038 115.109 51.7476 108.893 53.5059C107.621 53.8682 106.284 54.0707 104.894 54.0707C104.417 54.0707 103.95 54.0387 103.484 53.9961C103.388 55.9462 103.081 57.8324 102.582 59.6334C103.346 59.5694 104.11 59.4629 104.894 59.4629C105.987 59.4629 107.058 59.5481 108.119 59.676C121.431 61.2851 131.794 72.6875 131.794 86.4876H137.172C137.172 72.5383 128.347 60.6564 116.021 56.0848H116.032Z" fill="#F4F4F4"/>
<path d="M51.1056 59.4629C51.8906 59.4629 52.6543 59.5588 53.418 59.6334C52.9089 57.8218 52.6119 55.9356 52.5164 53.9961C52.0497 54.0387 51.583 54.0707 51.1056 54.0707C49.7161 54.0707 48.3796 53.8682 47.1067 53.5059C40.8909 51.7476 36.3086 46.0144 36.3086 39.205C36.3086 31.0102 42.9487 24.3392 51.1056 24.3392C54.4893 24.3392 57.5972 25.5008 60.0899 27.419C61.5219 28.5272 62.7523 29.8913 63.6964 31.4471C65.1814 30.4347 66.7724 29.5929 68.4484 28.9109C67.4937 27.3017 66.3375 25.8312 65.001 24.5417C61.384 21.0677 56.4835 18.9258 51.095 18.9258C39.9681 18.9258 30.9202 28.0157 30.9202 39.1943C30.9202 46.2382 34.516 52.4509 39.9681 56.0848C27.6426 60.6564 18.8174 72.5383 18.8174 86.4876H24.1952C24.1952 72.6875 34.5584 61.2851 47.8704 59.676C48.9312 59.5481 50.0025 59.4629 51.095 59.4629H51.1056Z" fill="#F4F4F4"/>
<path d="M134.86 37.1697C140.301 33.5359 143.908 27.3232 143.908 20.2793C143.908 9.10068 134.86 0.0107422 123.733 0.0107422C118.344 0.0107422 113.454 2.15269 109.827 5.62668C108.49 6.91611 107.323 8.37604 106.379 9.99582C108.055 10.6778 109.657 11.5197 111.131 12.5321C112.086 10.9762 113.306 9.61219 114.738 8.50392C117.231 6.57511 120.338 5.42421 123.722 5.42421C131.879 5.42421 138.519 12.0951 138.519 20.2899C138.519 26.2789 134.966 31.4366 129.874 33.781C130.097 35.0598 130.235 36.3705 130.235 37.7239C130.235 38.9494 130.108 40.1429 129.917 41.3257C141.765 44.1497 150.622 54.8274 150.622 67.5832H156C156 53.6339 147.175 41.752 134.849 37.1804L134.86 37.1697Z" fill="#FF6E2E"/>
<path d="M25.7648 37.7131C25.7648 36.3704 25.9027 35.0597 26.1255 33.7702C21.034 31.4258 17.4806 26.2681 17.4806 20.2792C17.4806 12.0844 24.1207 5.41347 32.2776 5.41347C35.6613 5.41347 38.7692 6.57502 41.2619 8.49318C42.6939 9.60145 43.9243 10.9655 44.8684 12.5213C46.3534 11.5089 47.9444 10.6671 49.6204 9.98508C48.6657 8.37596 47.5095 6.90537 46.173 5.61594C42.556 2.14194 37.6555 0 32.267 0C21.1507 0.0106564 12.1028 9.1006 12.1028 20.2792C12.1028 27.3231 15.7092 33.5358 21.1507 37.1696C8.82517 41.7412 0 53.6232 0 67.5724H5.37784C5.37784 54.8167 14.2348 44.1283 26.083 41.315C25.8921 40.1428 25.7648 38.9493 25.7648 37.7131Z" fill="#FF6E2E"/>
<path d="M78.0054 5.41356C85.197 5.41356 91.1476 10.6246 92.4629 17.466C95.4117 15.6864 97.5332 15.2814 97.5332 15.2814C95.3056 6.52182 87.4139 0.0107422 78.0054 0.0107422C68.5968 0.0107422 60.6944 6.52182 58.4775 15.2814C58.4775 15.2814 60.599 15.6757 63.5478 17.466C64.8631 10.6246 70.8137 5.41356 78.0054 5.41356Z" fill="#FF6E2E"/>
</svg>
