<svg width="144" height="100" viewBox="0 0 144 100" fill="none" xmlns="http://www.w3.org/2000/svg">
<path d="M92.3475 8.03777e-07L94.4515 0L95.2452 4.76147C98.9594 27.0427 116.633 44.5061 139.182 48.1762L144 48.9605L144 51.0395L139.182 51.8238C116.633 55.4939 98.9594 72.9573 95.2452 95.2385L94.4515 100L92.3475 100L91.5538 95.2385C87.8396 72.9573 70.1664 55.4939 47.6175 51.8238L42.7988 51.0395L42.7988 48.9605L47.6175 48.1762C70.1664 44.5061 87.8396 27.0427 91.5538 4.7615L92.3475 8.03777e-07Z" fill="#F4F4F4"/>
<path d="M23.2196 4L24.2056 4L24.5775 6.23891C26.318 16.7159 34.6001 24.9275 45.167 26.6532L47.4251 27.022L47.4251 27.9996L45.167 28.3683C34.6001 30.0941 26.318 38.3056 24.5775 48.7826L24.2056 51.0215H23.2196L22.8476 48.7826C21.1071 38.3056 12.825 30.0941 2.25813 28.3683L1.71536e-06 27.9996L0 27.022L2.25814 26.6532C12.825 24.9275 21.1071 16.7159 22.8476 6.23893L23.2196 4Z" fill="#FF6E2E"/>
<path d="M54.8209 76L55.3228 76L55.5122 77.1398C56.3983 82.4735 60.6146 86.654 65.9941 87.5325L67.1437 87.7203V88.218L65.9941 88.4057C60.6146 89.2842 56.3983 93.4647 55.5122 98.7984L55.3228 99.9382L54.8209 99.9382L54.6315 98.7984C53.7454 93.4647 49.5291 89.2842 44.1496 88.4057L43 88.218L43 87.7203L44.1496 87.5325C49.5291 86.654 53.7454 82.4735 54.6315 77.1398L54.8209 76Z" fill="#F4F4F4"/>
</svg>
