<svg width="118" height="100" viewBox="0 0 118 100" fill="none" xmlns="http://www.w3.org/2000/svg">
<path d="M79.6059 17.7058C79.9148 17.8024 80.2335 17.8511 80.574 17.8511H80.6735C81.014 17.8511 81.3365 17.8024 81.6454 17.7058C82.9835 17.2861 83.9493 16.0292 83.9493 14.5412V3.30682C83.9493 1.81803 82.9835 0.56419 81.6454 0.143709C81.3365 0.0463822 81.014 0 80.6735 0H80.574C80.2335 0 79.9148 0.0463822 79.6059 0.143709C78.2678 0.56343 77.3057 1.81803 77.3057 3.30682V14.5404C77.3057 16.0292 78.2678 17.2854 79.6059 17.7051V17.7058Z" fill="white"/>
<path d="M22.9241 0H22.8541C21.0386 0 19.5669 1.48528 19.5669 3.31747V14.5336C19.5669 16.3658 21.0386 17.8511 22.8541 17.8511H22.9241C24.7396 17.8511 26.2113 16.3658 26.2113 14.5336V3.31747C26.2113 1.48528 24.7396 0 22.9241 0Z" fill="white"/>
<path d="M6.32346 81.4867V29.9682H97.3766V52.5039C99.5307 52.6514 101.593 53.0704 103.517 53.7281V20.4987C103.517 16.0885 99.9541 12.4867 95.5835 12.4867H86.7451V14.5404C86.7451 17.9225 84.0253 20.672 80.6733 20.672H80.5738C77.2226 20.672 74.5103 17.9225 74.5103 14.5404V12.4867H29.0527V14.5404C29.0527 17.9225 26.3185 20.672 22.9665 20.672H22.8671C19.5159 20.672 16.8179 17.9225 16.8179 14.5404V12.4867H7.95386C3.58402 12.4867 0 16.0885 0 20.4987V79.712C0 84.1221 3.58402 87.7308 7.95386 87.7308H73.0434C72.1709 85.7881 71.5403 83.707 71.1892 81.4875H6.32346V81.4867Z" fill="white"/>
<path d="M26.7876 44.9673C26.7876 41.0179 23.6149 37.816 19.7016 37.816C15.7884 37.816 12.6157 41.0179 12.6157 44.9673C12.6157 48.9166 15.7884 52.1185 19.7016 52.1185C23.6149 52.1185 26.7876 48.9166 26.7876 44.9673Z" fill="#FF6E2E"/>
<path d="M48.1655 37.816H33.9937V52.1185H48.1655V37.816Z" fill="#F4F4F4"/>
<path d="M26.7876 59.3267H12.6157V73.6291H26.7876V59.3267Z" fill="#F4F4F4"/>
<path d="M48.1655 59.3267H33.9937V73.6291H48.1655V59.3267Z" fill="white"/>
<path d="M69.5439 59.3267H55.3721V73.6291H69.5439V59.3267Z" fill="#F4F4F4"/>
<path d="M69.5439 37.816H55.3721V52.1185H69.5439V37.816Z" fill="white"/>
<path d="M90.9228 37.816H76.751V52.1185H90.9228V37.816Z" fill="white"/>
<path d="M96.0873 55.7711C83.9858 55.7711 74.1748 65.6726 74.1748 77.8855C74.1748 90.0985 83.9858 100 96.0873 100C108.189 100 118 90.0985 118 77.8855C118 65.6726 108.189 55.7711 96.0873 55.7711ZM96.0873 95.1626C86.6477 95.1626 78.9681 87.4122 78.9681 77.8855C78.9681 68.3589 86.6477 60.6086 96.0873 60.6086C105.527 60.6086 113.207 68.3589 113.207 77.8855C113.207 87.4122 105.527 95.1626 96.0873 95.1626Z" fill="#FF6E2E"/>
<path d="M106.672 77.3602H97.105V66.0277C97.105 65.0735 96.3372 64.3002 95.3917 64.3002C94.4461 64.3002 93.6807 65.0735 93.6807 66.0277V80.5735C93.6807 81.5277 94.2088 82.1976 96.1639 82.1976H106.672C107.995 82.1976 109.068 81.1149 109.068 79.7781C109.068 78.4414 107.995 77.3594 106.672 77.3594V77.3602Z" fill="#FF6E2E"/>
</svg>
